<svg width="38" height="32" viewBox="0 0 38 32" fill="none" xmlns="http://www.w3.org/2000/svg">
<path id="Vector" d="M38 27.2V30.4C38 30.8333 37.8433 31.2083 37.5299 31.525C37.2166 31.8417 36.8455 32 36.4167 32H1.58333C1.15451 32 0.78342 31.8417 0.470052 31.525C0.156684 31.2083 0 30.8333 0 30.4V27.2C0 26.7667 0.156684 26.3917 0.470052 26.075C0.78342 25.7583 1.15451 25.6 1.58333 25.6H36.4167C36.8455 25.6 37.2166 25.7583 37.5299 26.075C37.8433 26.3917 38 26.7667 38 27.2ZM38 14.4V17.6C38 18.0333 37.8433 18.4083 37.5299 18.725C37.2166 19.0417 36.8455 19.2 36.4167 19.2H1.58333C1.15451 19.2 0.78342 19.0417 0.470052 18.725C0.156684 18.4083 0 18.0333 0 17.6V14.4C0 13.9667 0.156684 13.5917 0.470052 13.275C0.78342 12.9583 1.15451 12.8 1.58333 12.8H36.4167C36.8455 12.8 37.2166 12.9583 37.5299 13.275C37.8433 13.5917 38 13.9667 38 14.4ZM38 1.6V4.8C38 5.23333 37.8433 5.60833 37.5299 5.925C37.2166 6.24167 36.8455 6.4 36.4167 6.4H1.58333C1.15451 6.4 0.78342 6.24167 0.470052 5.925C0.156684 5.60833 0 5.23333 0 4.8V1.6C0 1.16667 0.156684 0.791667 0.470052 0.475C0.78342 0.158333 1.15451 0 1.58333 0H36.4167C36.8455 0 37.2166 0.158333 37.5299 0.475C37.8433 0.791667 38 1.16667 38 1.6Z" fill="#E9BC86"/>
</svg>
